<?xml version="1.0" encoding="UTF-8"?>
<!DOCTYPE svg PUBLIC "-//W3C//DTD SVG 1.1//EN" "http://www.w3.org/Graphics/SVG/1.1/DTD/svg11.dtd">
<svg version="1.1" xmlns="http://www.w3.org/2000/svg" xmlns:xlink="http://www.w3.org/1999/xlink" x="0" y="0" width="144" height="158.4" viewBox="0, 0, 144, 158.4">
  <g id="Layer_1">
    <g>
      <g id="hex-image">
        <g>
          <path d="M13,114.255 L13,45.145 L73,10.584 L133,45.145 L133,114.255 L73,148.815 z" fill="#FBF3EE"/>
          <path d="M13,114.255 L13,45.145 L73,10.584 L133,45.145 L133,114.255 L73,148.815 z" fill-opacity="0" stroke="#040404" stroke-width="1"/>
        </g>
        <path d="M72,12.97 L129.5,46.089 L129.5,112.31 L72,145.43 L14.5,112.31 L14.5,46.089 L72,12.97 z M72,7.199 L9.5,43.199 L9.5,115.201 L72,151.201 L134.5,115.201 L134.5,43.199 L72,7.199 z" fill="#654F42"/>
      </g>
      <text transform="matrix(1, 0, 0, 1, 72.225, 107.034)">
        <tspan x="-51.451" y="5.5" font-family="MyriadPro-Regular" font-size="26" fill="#664F42">rextendr</tspan>
      </text>
      <g>
        <g id="extendr-logo-2col">
          <path d="M68.592,25.827 C69.146,25.938 68.932,25.83 69.269,26.062 L71.724,28.34 L72.545,28.198 L74.096,25.231 C74.41,24.631 75.36,24.56 75.758,25.111 L77.716,27.817 L78.558,27.839 L80.654,25.238 C81.08,24.709 82.026,24.828 82.308,25.444 L83.702,28.482 L84.522,28.668 L87.086,26.524 C87.608,26.089 88.513,26.389 88.668,27.049 L89.443,30.308 L90.203,30.647 L93.142,29.041 C93.74,28.715 94.566,29.185 94.592,29.865 L94.716,33.213 L95.396,33.691 L98.592,32.69 C99.243,32.484 99.962,33.108 99.852,33.781 L99.323,37.082 L99.902,37.691 L103.225,37.332 C103.9,37.261 104.486,38.012 104.248,38.648 L103.086,41.779 L103.537,42.492 L106.863,42.79 C107.539,42.849 107.967,43.7 107.61,44.28 L105.857,47.13 L106.155,47.908 L109.368,48.851 C110.018,49.042 110.271,49.962 109.809,50.458 L107.532,52.913 L107.674,53.734 L110.639,55.286 C111.242,55.6 111.31,56.549 110.76,56.947 L108.055,58.905 L108.033,59.749 L110.633,61.844 C111.163,62.271 111.046,63.216 110.427,63.498 L107.39,64.89 L107.204,65.711 L109.348,68.275 C109.785,68.796 109.482,69.704 108.823,69.857 L105.565,70.632 L105.227,71.392 L106.833,74.333 C107.158,74.929 106.689,75.754 106.009,75.78 L102.662,75.905 L102.183,76.584 L103.184,79.781 C103.388,80.429 102.765,81.149 102.094,81.041 L98.793,80.512 L98.185,81.092 L98.541,84.413 C98.614,85.088 97.862,85.673 97.226,85.438 L94.095,84.275 L93.382,84.726 L93.084,88.051 C93.024,88.727 92.173,89.155 91.594,88.798 L88.744,87.044 L87.967,87.344 L87.023,90.557 C86.832,91.207 85.912,91.459 85.417,90.999 L82.962,88.722 L82.14,88.862 L80.588,91.828 C80.274,92.431 79.324,92.498 78.926,91.949 L76.969,89.244 L76.125,89.222 L74.031,91.823 C73.604,92.351 72.659,92.234 72.376,91.616 L70.982,88.58 L70.163,88.394 L67.598,90.537 C67.077,90.974 66.172,90.673 66.017,90.013 L65.241,86.754 L64.481,86.416 L61.542,88.022 C60.944,88.347 60.118,87.879 60.092,87.2 L59.967,83.852 L59.286,83.373 L56.091,84.374 C55.448,84.579 54.722,83.954 54.831,83.283 L55.361,79.983 L54.781,79.373 L51.459,79.731 C50.784,79.805 50.199,79.054 50.435,78.416 L51.597,75.285 L51.146,74.572 L47.819,74.274 C47.144,74.213 46.717,73.363 47.073,72.785 L48.826,69.934 L48.528,69.156 L45.315,68.212 C44.665,68.023 44.412,67.103 44.873,66.606 L47.15,64.151 L47.008,63.33 L44.043,61.779 C43.441,61.464 43.373,60.514 43.922,60.117 L46.628,58.159 L46.65,57.315 L44.049,55.22 C43.522,54.794 43.638,53.849 44.255,53.566 L47.293,52.174 L47.479,51.354 L45.335,48.789 C44.899,48.266 45.204,47.367 45.86,47.207 L49.118,46.431 L49.456,45.672 L47.851,42.732 C47.525,42.135 47.995,41.309 48.675,41.282 L52.022,41.158 L52.501,40.477 L51.5,37.281 C51.295,36.634 51.919,35.912 52.59,36.02 L55.891,36.55 L56.499,35.971 L56.142,32.647 C56.07,31.974 56.821,31.386 57.458,31.624 L60.59,32.785 L61.303,32.336 L61.6,29.009 C61.66,28.331 62.512,27.906 63.089,28.261 L65.94,30.016 L66.719,29.717 L67.663,26.504 C67.839,26.01 68.137,25.952 68.592,25.827 L68.592,25.827 z M75.218,33.607 L72.753,37.728 C72.232,38.599 71.105,38.881 70.235,38.359 L66.381,36.046 C59.733,39.54 54.633,45.733 53.16,52.439 L56.734,56.699 C57.377,57.485 57.262,58.643 56.478,59.286 C56.478,59.286 52.914,62.378 52.807,62.296 C54.135,72.46 60.76,77.546 64.701,79.685 C64.713,79.755 68.479,77.717 68.479,77.717 C69.378,77.249 70.487,77.599 70.956,78.5 L73.182,82.78 C80.304,83.976 87.593,82.006 93.144,77.387 L92.867,72.571 C92.808,71.556 93.581,70.689 94.594,70.63 C94.594,70.63 98.939,70.417 98.944,70.382 C101.765,65.27 103.413,57.675 100.42,49.397 L95.471,48.652 C94.469,48.501 93.777,47.565 93.926,46.561 L94.793,40.757 C89.634,35.614 82.476,32.999 75.218,33.607 L75.218,33.607 z M96.613,72.722 C95.541,73.018 94.911,74.126 95.206,75.199 C95.501,76.271 96.61,76.901 97.682,76.606 C98.755,76.311 99.385,75.202 99.089,74.13 C98.794,73.057 97.686,72.427 96.613,72.722 L96.613,72.722 z M67.818,80.552 C66.746,80.847 66.115,81.956 66.411,83.028 C66.706,84.1 67.815,84.731 68.887,84.436 C69.96,84.14 70.589,83.031 70.294,81.959 C69.999,80.887 68.891,80.257 67.818,80.552 L67.818,80.552 z M97.859,42.944 C96.787,43.239 96.157,44.347 96.452,45.42 C96.747,46.492 97.856,47.122 98.928,46.827 C100.001,46.532 100.63,45.423 100.335,44.351 C100.04,43.278 98.932,42.648 97.859,42.944 L97.859,42.944 z M51.507,55.607 C50.435,55.902 49.804,57.01 50.1,58.083 C50.395,59.155 51.504,59.785 52.576,59.49 C53.649,59.195 54.278,58.086 53.983,57.014 C53.688,55.941 52.58,55.311 51.507,55.607 L51.507,55.607 z M69.831,31.649 C68.759,31.944 68.129,33.053 68.424,34.125 C68.719,35.198 69.828,35.828 70.9,35.533 C71.973,35.237 72.602,34.128 72.307,33.056 C72.012,31.984 70.904,31.354 69.831,31.649 L69.831,31.649 z" fill="#654F42"/>
          <path d="M82.996,57.165 C82.996,57.165 84.927,57.207 86.107,57.442 C86.517,57.523 87.238,57.712 87.817,58.061 C88.385,58.403 88.728,58.813 88.728,58.813 L98.997,68.632 L87.631,71.766 L79.592,63.335 C79.592,63.335 77.993,61.78 77.174,61.427 C76.492,61.132 76.211,61.039 75.658,61.191 C75.273,61.297 72.957,61.934 72.957,61.934 L76.507,74.821 L66.449,77.595 L57.387,44.674 L77.587,39.113 C77.587,39.113 86.832,36.745 89.221,45.422 C91.609,54.098 82.996,57.165 82.996,57.165 z M75.586,47.346 L69.495,49.019 L71.033,54.617 L77.125,52.938 C77.125,52.938 79.944,52.153 79.163,49.314 C78.366,46.418 75.586,47.346 75.586,47.346 z" fill="#2B6EA9"/>
        </g>
        <path d="M113.556,71.718 C114.666,71.733 114.817,76.012 115.57,76.169 C116.322,76.327 118.598,72.486 119.421,73.164 C120.244,73.842 118.698,77.536 119.135,78.041 C119.572,78.545 123.39,76.122 123.942,77.169 C124.494,78.217 121.242,80.633 121.422,81.355 C121.603,82.077 125.924,81.292 126.084,82.817 C126.244,84.342 121.931,84.69 121.908,85.352 C121.884,86.014 125.717,87.409 125.356,88.813 C124.994,90.217 120.794,88.533 120.48,89.117 C120.166,89.702 122.855,92.85 121.924,93.784 C120.994,94.717 118.047,91.467 117.466,91.787 C116.884,92.108 117.581,96.292 116.576,96.591 C115.572,96.889 114.259,92.738 113.556,92.751 C112.853,92.764 111.625,96.886 110.536,96.591 C109.447,96.295 110.284,92.186 109.646,91.787 C109.009,91.389 106.023,94.428 105.188,93.784 C104.353,93.139 106.943,89.751 106.632,89.117 C106.322,88.483 102.192,89.831 101.757,88.813 C101.322,87.795 105.369,86.065 105.205,85.352 C105.041,84.639 100.986,83.87 101.029,82.817 C101.072,81.764 105.527,82.039 105.69,81.355 C105.853,80.67 102.582,78.106 103.171,77.169 C103.759,76.233 107.414,78.568 107.977,78.041 C108.541,77.514 106.937,73.627 107.692,73.164 C108.447,72.702 110.795,76.512 111.543,76.169 C112.291,75.827 112.447,71.704 113.556,71.719 z M113.597,79.054 C110.836,79.054 108.597,81.341 108.597,84.162 C108.597,86.984 110.836,89.271 113.597,89.271 C116.359,89.271 118.597,86.984 118.597,84.162 C118.597,81.341 116.359,79.054 113.597,79.054 z" fill="#654F42"/>
        <path d="M34.635,58.98 C35.744,58.994 35.896,63.274 36.648,63.431 C37.401,63.588 39.677,59.747 40.499,60.425 C41.322,61.103 39.777,64.797 40.214,65.302 C40.651,65.806 44.469,63.383 45.02,64.43 C45.572,65.478 42.32,67.894 42.501,68.616 C42.682,69.338 47.002,68.553 47.162,70.078 C47.322,71.603 43.01,71.951 42.987,72.613 C42.963,73.275 46.796,74.67 46.434,76.074 C46.072,77.478 41.873,75.794 41.559,76.378 C41.244,76.963 43.934,80.111 43.003,81.045 C42.072,81.978 39.126,78.728 38.545,79.048 C37.963,79.369 38.659,83.553 37.655,83.852 C36.651,84.15 35.338,79.999 34.635,80.012 C33.932,80.025 32.704,84.147 31.615,83.852 C30.526,83.556 31.362,79.447 30.725,79.048 C30.088,78.65 27.101,81.69 26.267,81.045 C25.432,80.4 28.022,77.012 27.711,76.378 C27.401,75.744 23.27,77.092 22.836,76.074 C22.401,75.056 26.447,73.326 26.283,72.613 C26.119,71.9 22.064,71.131 22.107,70.078 C22.151,69.025 26.605,69.3 26.769,68.616 C26.932,67.931 23.661,65.367 24.249,64.43 C24.838,63.494 28.493,65.829 29.056,65.302 C29.619,64.775 28.015,60.888 28.77,60.425 C29.526,59.963 31.874,63.774 32.622,63.431 C33.369,63.088 33.526,58.965 34.635,58.98 z M34.676,66.315 C31.914,66.315 29.676,68.602 29.676,71.423 C29.676,74.245 31.914,76.532 34.676,76.532 C37.437,76.532 39.676,74.245 39.676,71.423 C39.676,68.602 37.437,66.315 34.676,66.315 z" fill="#654F42"/>
      </g>
    </g>
  </g>
</svg>
