<?xml version="1.0" encoding="UTF-8"?>
<!DOCTYPE svg PUBLIC "-//W3C//DTD SVG 1.1//EN" "http://www.w3.org/Graphics/SVG/1.1/DTD/svg11.dtd">
<svg version="1.1" xmlns="http://www.w3.org/2000/svg" xmlns:xlink="http://www.w3.org/1999/xlink" x="0" y="0" width="144" height="144" viewBox="0, 0, 144, 144">
  <defs>
    <linearGradient id="Gradient_1" gradientUnits="userSpaceOnUse" x1="34.044" y1="34.064" x2="107.984" y2="107.975">
      <stop offset="0" stop-color="#C0C2C5"/>
      <stop offset="1" stop-color="#818188"/>
    </linearGradient>
    <linearGradient id="Gradient_2" gradientUnits="userSpaceOnUse" x1="47" y1="42.209" x2="99.099" y2="94.907">
      <stop offset="0" stop-color="#276DC3"/>
      <stop offset="1" stop-color="#165CAA"/>
    </linearGradient>
  </defs>
  <g id="Layer_1">
    <path d="M71.392,18.757 C72.171,19.148 71.897,18.901 72.303,19.383 L75.023,23.778 L76.303,23.903 L79.825,20.124 C80.539,19.36 81.981,19.643 82.347,20.627 L84.152,25.455 L85.396,25.832 L89.581,22.821 C90.431,22.209 91.789,22.773 91.957,23.805 L92.787,28.896 L93.93,29.509 L98.624,27.369 C99.578,26.935 100.802,27.752 100.762,28.798 L100.581,33.964 L101.573,34.78 L106.604,33.594 C107.626,33.354 108.663,34.392 108.423,35.414 L107.236,40.446 L108.052,41.436 L113.218,41.256 C114.27,41.216 115.084,42.439 114.646,43.395 L112.507,48.09 L113.119,49.233 L118.209,50.061 C119.243,50.231 119.807,51.588 119.193,52.438 L116.182,56.62 L116.56,57.866 L121.387,59.671 C122.369,60.037 122.656,61.478 121.888,62.194 L118.112,65.716 L118.237,66.996 L122.631,69.716 C123.521,70.266 123.52,71.739 122.63,72.287 L118.236,75.007 L118.111,76.287 L121.887,79.81 C122.655,80.524 122.368,81.964 121.386,82.332 L116.559,84.137 L116.181,85.383 L119.192,89.566 C119.806,90.418 119.244,91.776 118.208,91.942 L113.118,92.77 L112.506,93.915 L114.645,98.608 C115.083,99.562 114.259,100.789 113.217,100.747 L108.051,100.566 L107.237,101.558 L108.422,106.591 C108.662,107.611 107.625,108.647 106.603,108.407 L101.572,107.222 L100.581,108.036 L100.761,113.203 C100.799,114.251 99.577,115.067 98.623,114.631 L93.929,112.492 L92.786,113.105 L91.956,118.193 C91.788,119.227 90.43,119.789 89.58,119.179 L85.397,116.166 L84.151,116.545 L82.346,121.371 C81.98,122.351 80.538,122.64 79.824,121.872 L76.302,118.095 L75.022,118.223 L72.302,122.617 C71.752,123.505 70.279,123.503 69.731,122.617 L67.011,118.223 L65.73,118.095 L62.207,121.872 C61.493,122.64 60.051,122.351 59.685,121.371 L57.88,116.545 L56.634,116.166 L52.452,119.179 C51.602,119.789 50.243,119.229 50.075,118.193 L49.245,113.105 L48.102,112.492 L43.408,114.631 C42.454,115.067 41.23,114.249 41.27,113.203 L41.45,108.036 L40.458,107.222 L35.427,108.407 C34.405,108.647 33.367,107.611 33.607,106.591 L34.792,101.558 L33.976,100.566 L28.812,100.747 C27.77,100.789 26.947,99.562 27.383,98.608 L29.523,93.915 L28.91,92.77 L23.821,91.942 C22.787,91.776 22.224,90.418 22.836,89.566 L25.847,85.383 L25.469,84.137 L20.641,82.332 C19.661,81.964 19.374,80.524 20.14,79.81 L23.917,76.287 L23.792,75.007 L19.398,72.287 C18.508,71.739 18.508,70.266 19.398,69.716 L23.792,66.996 L23.917,65.716 L20.14,62.194 C19.374,61.478 19.661,60.037 20.641,59.671 L25.469,57.866 L25.847,56.62 L22.836,52.438 C22.226,51.588 22.786,50.229 23.82,50.061 L28.91,49.233 L29.523,48.09 L27.383,43.395 C26.949,42.439 27.77,41.226 28.812,41.256 L33.978,41.436 L34.792,40.446 L33.607,35.414 C33.367,34.392 34.405,33.356 35.427,33.594 L40.458,34.78 L41.45,33.964 L41.27,28.798 C41.23,27.752 42.454,26.933 43.408,27.369 L48.102,29.509 L49.245,28.896 L50.075,23.805 C50.243,22.773 51.602,22.207 52.452,22.821 L56.636,25.832 L57.881,25.455 L59.686,20.627 C60.052,19.643 61.494,19.36 62.208,20.124 L65.731,23.903 L67.012,23.778 L69.732,19.383 C70.196,18.721 70.664,18.757 71.392,18.757 L71.392,18.757 z M78.064,33.046 L72.709,38.168 C71.577,39.251 69.785,39.209 68.703,38.076 L63.917,33.055 C52.594,35.531 42.469,42.656 37.531,52.031 L41.104,59.834 C41.739,61.267 41.093,62.943 39.663,63.578 C39.663,63.578 33.094,66.719 32.968,66.553 C30.781,82.219 38.555,92.5 43.543,97.297 C43.531,97.406 49.97,95.917 49.97,95.917 C51.5,95.588 53.006,96.564 53.334,98.096 L54.893,105.376 C65,110.072 76.652,110.127 86.804,105.529 L88.364,98.249 C88.692,96.715 90.198,95.741 91.729,96.069 C91.729,96.069 98.281,97.531 98.302,97.482 C104.594,91.031 110.156,80.406 109.094,66.862 L102.036,63.727 C100.607,63.092 99.961,61.416 100.594,59.983 L104.26,51.703 C98.692,41.938 89.112,35.115 78.064,33.046 L78.064,33.046 z M93.876,100.009 C92.16,100.009 90.768,101.4 90.768,103.117 C90.768,104.833 92.16,106.225 93.876,106.225 C95.593,106.225 96.984,104.833 96.984,103.117 C96.984,101.4 95.593,100.009 93.876,100.009 L93.876,100.009 z M47.825,99.864 C46.109,99.864 44.717,101.255 44.717,102.972 C44.717,104.688 46.109,106.08 47.825,106.08 C49.542,106.08 50.933,104.688 50.933,102.972 C50.933,101.255 49.542,99.864 47.825,99.864 L47.825,99.864 z M107.927,56.212 C106.211,56.212 104.819,57.603 104.819,59.32 C104.819,61.036 106.211,62.428 107.927,62.428 C109.644,62.428 111.035,61.036 111.035,59.32 C111.035,57.603 109.644,56.212 107.927,56.212 L107.927,56.212 z M33.774,56.067 C32.058,56.067 30.666,57.458 30.666,59.175 C30.666,60.891 32.058,62.283 33.774,62.283 C35.491,62.283 36.882,60.891 36.882,59.175 C36.882,57.458 35.491,56.067 33.774,56.067 L33.774,56.067 z M70.851,27.927 C69.135,27.927 67.743,29.318 67.743,31.035 C67.743,32.751 69.135,34.143 70.851,34.143 C72.568,34.143 73.959,32.751 73.959,31.035 C73.959,29.318 72.568,27.927 70.851,27.927 L70.851,27.927 z" fill="url(#Gradient_1)"/>
    <path d="M79.987,71.283 C79.987,71.283 82.844,72.138 84.503,72.97 C85.079,73.259 86.075,73.835 86.794,74.592 C87.498,75.333 87.841,76.084 87.841,76.084 L99.099,94.899 L80.903,94.907 L72.395,79.069 C72.395,79.069 70.653,76.101 69.58,75.241 C68.686,74.523 68.305,74.268 67.421,74.268 C66.805,74.268 63.097,74.268 63.097,74.268 L63.101,94.896 L47,94.903 L47,42.209 L79.333,42.209 C79.333,42.209 94.059,42.473 94.059,56.361 C94.059,70.249 79.987,71.283 79.987,71.283 z M72.984,53.639 L63.237,53.633 L63.232,62.593 L72.984,62.59 C72.984,62.59 77.5,62.576 77.5,58.032 C77.5,53.397 72.984,53.639 72.984,53.639 z" fill="url(#Gradient_2)"/>
  </g>
</svg>
